<?xml version="1.0" encoding="utf-8"?>
<!-- Generator: Adobe Illustrator 26.2.1, SVG Export Plug-In . SVG Version: 6.00 Build 0)  -->
<svg version="1.1" id="Layer_1" xmlns="http://www.w3.org/2000/svg" xmlns:xlink="http://www.w3.org/1999/xlink" x="0px" y="0px"
	 viewBox="0 0 500 300" style="enable-background:new 0 0 500 300;" xml:space="preserve">
<path d="M27.68,215.34c-2.85,0.61-2.79-1.63-3.36-3.23c-0.23-0.64-0.37-1.64-0.82-1.83c-4.26-1.79-3.87-5.56-3.81-9.39
	c0.71,0.65,1.44,1.28,2.12,1.95c1.9,1.86,2.54,1.72,3.16-0.98c1.88-8.08,3.57-16.2,5.53-24.26c3.67-15.11,7.47-30.18,11.21-45.28
	c0.04-0.15-0.05-0.32-0.14-0.78c-9.68,2.67-18.69,6.78-27.35,11.54c0.18,0.81,0.64,1.67,0.38,2.09c-0.3,0.48-1.41,0.95-1.84,0.74
	c-0.73-0.35-1.71-1.27-1.66-1.88c0.09-1.13,0.54-2.72,1.37-3.22c5.01-2.97,10.04-5.96,15.32-8.38c4.64-2.14,9.63-3.52,14.44-5.31
	c0.69-0.26,1.31-0.88,1.78-1.48c0.95-1.22,1.77-2.54,2.64-3.82c0.26,0.15,0.52,0.3,0.77,0.44c-0.63,1.22-1.26,2.44-1.95,3.79
	c4.56-0.94,8.95-2.01,13.39-2.74c7.86-1.28,15.78-2.41,23.68-0.27c7.54,2.04,9.43,6.77,5.66,13.62c-3.46,6.3-7.44,12.41-11.86,18.07
	c-6.99,8.94-14.33,17.62-21.92,26.06c-7.7,8.56-15.72,16.85-23.94,24.91C27.53,208.62,26.94,211.57,27.68,215.34z M29.4,198.9
	c0.2,0.06,0.39,0.12,0.59,0.18c0.86-0.82,1.73-1.61,2.56-2.45c15.51-15.68,30.6-31.76,44.05-49.27c3.15-4.11,5.61-8.76,8.31-13.2
	c1.97-3.24,1.86-5.32-3.42-6.95c-4.73-1.46-9.65-1.49-14.57-0.6c-7.03,1.27-14.07,2.42-21.11,3.62c-1.51,0.26-2.22,1.09-2.55,2.65
	c-1.27,6.14-2.74,12.24-4.06,18.37c-2.75,12.78-5.47,25.56-8.15,38.35C30.42,192.68,29.95,195.8,29.4,198.9z"/>
<path d="M488.17,109.3c-2.76-3.84-1.06-7.34,0.31-10.86c0.42-1.09,0.9-2.16,1.25-3.27c1.7-5.38-0.75-7.33-6.28-7.91
	c-5.73-0.6-11.15,1.4-16.47,3.32c-4.24,1.53-8.42,3.24-12.89,4.98c1.38,1.11,2.5,1.98,3.58,2.88c3.71,3.09,3.86,5.69,0.72,9.91
	c-2.93,3.94-6.32,7.62-9.91,10.98c-9.92,9.28-20.63,17.62-31.84,25.29c-17.39,11.89-35.66,22.1-55.7,28.86
	c-5.28,1.78-10.63,3.25-16.32,2.97c-3.59-0.18-6.06-2.44-6.23-5.99c-0.04-0.85-0.03-1.71-0.02-2.56c0.1-4.31,1.4-5.49,6.47-5.49
	c-0.69,0.5-1.08,0.95-1.57,1.1c-2.83,0.9-4.14,2.58-3.82,5.01c0.52,3.96,2.32,5.92,5.63,5.85c6.32-0.15,12.27-2.06,18.08-4.31
	c21.69-8.38,41.5-20.1,60.05-34.04c9.67-7.27,18.99-14.94,27.31-23.75c1.75-1.85,3.36-3.84,4.88-5.88c2.1-2.81,2.01-2.98-0.81-4.93
	c-0.35-0.24-0.66-0.53-0.93-0.14c-1.81,0.3-3.62,0.64-5.44,0.9c-3.33,0.48-6.67,0.93-10.01,1.36c-1.29,0.17-2.24-0.06-2.63-1.66
	c-0.38-1.57-0.19-2.73,1.23-3.46c2.48-1.28,4.96-2.6,7.55-3.64c9.29-3.71,18.54-7.53,27.97-10.85c5.11-1.8,10.54-2.34,15.92-0.42
	c4.74,1.69,7.45,6.34,5.93,11.12c-1.51,4.77-3.47,9.39-5.25,14.07C488.84,108.92,488.53,109.03,488.17,109.3z"/>
<path d="M208.46,146.96c-4.3,0.58-8.66,0.88-12.88,1.83c-3.55,0.8-6.97,2.24-10.34,3.65c-0.82,0.34-1.86,1.84-1.68,2.49
	c0.33,1.13,1.34,2.53,2.39,2.89c4.86,1.66,9.27-0.25,13.52-2.38c1.57-0.79,2.89-2.06,4.42-2.95c0.85-0.49,1.89-0.65,3.18-1.07
	c-0.24,9.65,0.02,18.63-3.15,27.23c-1.93,5.25-4.99,9.68-10.2,12.01c-4.86,2.18-7.99,0.19-8.81-5.08c-0.1-0.62-0.27-1.23-0.56-2.56
	c1.04,0.94,1.76,1.32,2.09,1.91c2.11,3.88,5.59,3.19,8.64,1.02c3.98-2.83,6-6.97,7.27-11.53c0.47-1.69,0.87-3.43,1.01-5.17
	c0.33-4.15,0.49-8.31,0.71-12.32c-3.86,1.47-7.53,3.1-11.34,4.25c-4.47,1.35-8.92,0.07-10.66-2.63c-1.97-3.04-1.31-5.85,1.63-7.99
	c3.41-2.48,7.42-3.16,11.38-3.69c4.39-0.59,8.85-0.63,13.27-0.91C208.41,146.31,208.44,146.63,208.46,146.96z"/>
<path d="M135.53,174.59c-0.61,1.19-1.22,2.38-2.09,4.08c5.39-2.26,9.49-5.4,13.69-9.96c-3.16-0.95-5.81-1.76-8.46-2.55
	c-3.46-1.03-7.01-1.8-10.35-3.12c-5.3-2.09-6.11-6.4-2.01-10.32c5.25-5.01,11.44-6.66,18.42-4.87c0.04,0.28,0.08,0.56,0.12,0.84
	c-1.01,0-2.04,0.11-3.03-0.02c-6.05-0.81-10.82,1.6-14.8,5.9c-1.85,2-1.65,4.12,0.86,5.08c3.8,1.45,7.83,2.28,11.75,3.43
	c2.72,0.79,5.45,1.55,8.1,2.54c2.06,0.76,2.62,2.33,1.82,4.46c-1.4,3.7-4.32,6.04-7.34,8.2c-2.87,2.05-5.94,3.84-9.02,5.56
	c-1.35,0.75-3.38,1.73-4.23-0.25c-0.68-1.57-1.01-4.21-0.14-5.34c1.47-1.91,4-3.01,6.09-4.46
	C135.1,174.06,135.31,174.33,135.53,174.59z"/>
<path d="M262.05,182.8c7.63-0.61,13.66-4.32,18.83-9.71c2.37-2.47,2.34-4.27-0.72-5.79c-3.81-1.89-7.9-3.2-11.89-4.74
	c-2.11-0.81-4.33-1.4-6.37-2.37c-3.81-1.82-4.68-5.61-1.93-8.72c4.27-4.84,9.47-8.48,15.43-10.97c0.72-0.3,1.69-0.01,2.55,0.01
	c-0.04,0.85,0.05,1.73-0.17,2.53c-0.21,0.78-0.74,1.47-1.51,2.13c0.12-0.97,0.24-1.95,0.46-3.65c-3.33,2.14-6.32,3.91-9.13,5.92
	c-1.79,1.27-3.38,2.84-4.95,4.39c-2.85,2.81-2.48,4.81,1.22,6.13c3.7,1.32,7.5,2.35,11.22,3.59c1.75,0.58,3.48,1.25,5.14,2.05
	c5.81,2.78,6.8,7.44,2.5,12.2c-4.14,4.59-9.17,7.93-15.02,9.95C264.16,186.99,263.25,186.47,262.05,182.8z"/>
<path d="M75.62,178.67c2.7-1.01,5.39-2.01,8.08-3.02c0.13-7.24,5.26-10.79,10.53-14.1c1.81-1.14,3.95-2.06,6.04-2.37
	c1.44-0.21,3.35,0.47,4.48,1.42c0.53,0.45,0.07,2.66-0.52,3.76c-2,3.75-5.74,5.6-9.18,7.68c-2.52,1.53-5.24,2.73-7.94,4.12
	c1.68,3.4,4.82,5.05,8.29,5.79c5.61,1.19,11.28,0.81,16.9-0.32c0.41-0.08,0.84-0.1,1.26-0.1c0.32,0,0.63,0.1,1.05,0.17
	c-10.11,6.78-25.48,6.6-30.71-4.26c-2.67,0.73-5.36,1.46-8.05,2.19C75.78,179.33,75.7,179,75.62,178.67z M103.45,162.25
	c-5.9-1.29-16.29,6.43-16.39,12.03C93.14,171.11,99.39,168.4,103.45,162.25z"/>
<path d="M246.11,158.57c-8.08-4.26-14.61-0.73-20.9,4c-2.14,1.61-4.28,3.23-6.38,4.82c-2.92-2.9-2.67-13.83-0.03-15.91
	c0,1.93,0,3.96,0,5.99c0,2.09,0,4.18,0,5.93c4.64-2.96,9.07-6.18,13.87-8.71c3.82-2.02,8.08-2.12,12.22-0.3
	C247.02,155.33,247.49,156.61,246.11,158.57z"/>
<path d="M163.59,161.78c1.9,3.41,1.77,10.34-0.25,12.03C161.65,169.68,163.56,165.73,163.59,161.78z"/>
<path d="M163.88,146.32c-0.77-0.99-1.46-1.75-1.96-2.61c-0.08-0.14,0.61-0.74,0.95-1.12c0.67,0.88,1.36,1.75,1.97,2.67
	C164.89,145.34,164.38,145.78,163.88,146.32z"/>
</svg>
