<svg id="Layer_1" data-name="Layer 1" xmlns="http://www.w3.org/2000/svg" viewBox="0 0 298.03 62.69"><g id="A9phCH.tif"><path d="M109.88,386.56c.9-3,1.82-6,2.7-9.08,1.19-4.13,1.17-4.14,5.7-3.91,1.28,4.2,2.59,8.5,3.91,12.79l.61,0c.86-4.37,1.85-8.72,2.52-13.12.27-1.77.88-2.4,2.61-2.21a35.82,35.82,0,0,0,3.68,0c-2.06,8.09-4,15.85-6,23.66h-5.36c-1.39-4.24-2.81-8.54-4.41-13.42l-4.35,13.49h-5.31l-6-23.53h6l3.19,15.3Z" transform="translate(-100.11 -338.16)"/><path d="M182.42,394.52V371.16c3.84,0,7.63-.38,11.31.08,7.2.9,9.83,6.19,9.32,12.62-.61,7.75-5.06,11.21-13.94,11.19C186.89,395.05,184.67,394.71,182.42,394.52Zm5.39-18.75c0,4.51,0,8.93,0,13.35a1.6,1.6,0,0,0,.84,1.23c3.06.95,7.4-1.47,8.41-4.61C199.21,379.14,195,374.39,187.81,375.77Z" transform="translate(-100.11 -338.16)"/><path d="M322.28,394.71H317V384.44c0-1.24,0-2.48,0-3.72,0-4.23-.54-3.39,3.53-4.08,2.82-.48,5.79-.78,8.53.79.43.25,1.18,0,1.78-.12a31.24,31.24,0,0,1,5.29-.82c3.08,0,5.28,1.83,5.48,4.85.3,4.39.08,8.82.08,13.35h-5c0-2.84,0-5.59,0-8.33,0-.95,0-1.9-.12-2.84-.31-2.6-1.93-3.3-4.58-2v13.13h-5.07V387.8c0-1.09,0-2.19,0-3.27-.2-3.12-1.17-3.9-4.62-3.51Z" transform="translate(-100.11 -338.16)"/><path d="M153.22,369l5.08-.86v8.63a5.9,5.9,0,0,0,.86,0c5.66-1.22,9.41.83,10.43,5.68,1.41,6.74-1.21,11.71-7,12.47-3,.4-6.15-.16-9.34-.3Zm5.08,21.26c2.74.85,4.47.34,5.5-1.47,1.18-2.1,1-6.05-.6-7.09a7,7,0,0,0-3.64-.63c-.43,0-1.17.92-1.2,1.44C158.24,385.13,158.3,387.74,158.3,390.28Z" transform="translate(-100.11 -338.16)"/><path d="M191.2,346.3v-7.19l5.09-.95v26.32a63.35,63.35,0,0,1-7.89.7c-5.85-.18-9.26-4.29-8.75-10.13.28-3.32,1-6.57,4.44-7.87C186.14,346.4,188.57,346.58,191.2,346.3Zm0,14.05c0-2.24,0-4.42,0-6.6,0-1,.45-2.49-1.13-2.61a6.56,6.56,0,0,0-3.82.67c-1.56,1-1.68,4.85-.57,6.91C186.7,360.58,188.33,361.1,191.24,360.35Z" transform="translate(-100.11 -338.16)"/><path d="M301.65,394.61v6.23h-5.21V388.56c0-3.2-.05-6.39.05-9.59,0-.64.56-1.8.91-1.82a58.69,58.69,0,0,1,10.52,0,5.9,5.9,0,0,1,4.79,5.12,20,20,0,0,1-.09,7.48c-.89,3.94-4.23,5.8-8.31,5.26Zm0-13.62c0,2.29,0,4.44,0,6.59,0,1.18-.38,2.59,1.44,2.87s3.44.25,4.23-1.68a6.72,6.72,0,0,0-.41-6.43C305.73,380.49,303.87,380.72,301.64,381Z" transform="translate(-100.11 -338.16)"/><path d="M362.12,387.46H351.17c.24,3.44,4.19,3.68,9.44,2.58.14.67.31,1.34.43,2s.2,1.28.32,2.08c-3.71,1.25-7.39,1.76-11.05.18-4.42-1.92-6.19-7.9-4-13A8.75,8.75,0,0,1,357.92,377C361.37,378.48,362.91,382.17,362.12,387.46ZM351,383.75h6.21c-.25-1.91-1.05-3-2.91-3C352.3,380.68,351.3,381.73,351,383.75Z" transform="translate(-100.11 -338.16)"/><path d="M261.36,387.41H250.22c.55,3.19,3.27,3.94,9.41,2.59l.86,4c-3.84,1.5-7.65,1.94-11.46.14s-4.63-5.06-4.46-8.73c.29-6.32,4.31-9.77,10.23-9,3.72.49,6.14,3,6.54,7C261.47,384.66,261.36,385.89,261.36,387.41ZM250,383.81h6.14c.11-1.83-.72-2.83-2.4-3.05C251.63,380.49,250.47,381.52,250,383.81Z" transform="translate(-100.11 -338.16)"/><path d="M222.67,387.43h-11c.87,3.24,2.77,3.75,9.56,2.65l.75,4.05c-3.49,1.2-6.9,1.62-10.34.49-4.87-1.6-7.05-7.7-4.79-13.17a8.75,8.75,0,0,1,11.89-4.37C222.06,378.67,223.54,382.44,222.67,387.43Zm-11.09-3.67h6.13c-.05-1.95-.94-2.94-2.77-3C212.92,380.64,211.93,381.72,211.58,383.76Z" transform="translate(-100.11 -338.16)"/><path d="M148.83,387.47H137.89c.12,3,3.48,3.83,9.45,2.58.14.67.3,1.34.43,2s.19,1.27.31,2.08c-3.64,1.21-7.24,1.71-10.85.24-4.57-1.87-6.43-7.9-4.16-13.1A8.75,8.75,0,0,1,144.66,377C148.1,378.49,149.65,382.22,148.83,387.47Zm-11.11-3.71h6.13c0-1.95-.94-2.94-2.77-3C139.06,380.64,138.07,381.72,137.72,383.76Z" transform="translate(-100.11 -338.16)"/><path d="M176.37,355.85c0,5.72-3.51,9.42-8.85,9.41s-8.84-3.81-8.9-9.46,3.76-9.66,9-9.54S176.4,350.14,176.37,355.85Zm-12.5-.13c.28,1.1.26,2.29.84,3a4.46,4.46,0,0,0,2.88,1.74,4,4,0,0,0,2.77-1.87,5.52,5.52,0,0,0-.05-5.82,3.9,3.9,0,0,0-2.65-1.78,4,4,0,0,0-2.81,1.52C164.21,353.35,164.17,354.65,163.87,355.72Z" transform="translate(-100.11 -338.16)"/><path d="M280,355.86c0,5.72-3.52,9.42-8.87,9.4s-8.83-3.83-8.88-9.48,3.59-9.47,8.85-9.53S280,350.08,280,355.86Zm-12.5-.14c.28,1.1.26,2.29.84,3a4.44,4.44,0,0,0,2.88,1.74,4,4,0,0,0,2.77-1.87,5.55,5.55,0,0,0-.05-5.82,3.09,3.09,0,0,0-5.46-.26C267.78,353.35,267.74,354.65,267.45,355.72Z" transform="translate(-100.11 -338.16)"/><path d="M340.56,355.84c0,5.73-3.47,9.45-8.81,9.46s-9-3.94-8.95-9.62,3.77-9.45,9-9.38S340.57,350.14,340.56,355.84Zm-12.37-.24a10.46,10.46,0,0,0,.21,2c.48,1.6,1.2,3,3.21,3a3,3,0,0,0,3.28-2.84,11.84,11.84,0,0,0-.05-4.28,3,3,0,0,0-3-2.62c-1.84,0-2.78,1.09-3.29,2.65A12.73,12.73,0,0,0,328.19,355.6Z" transform="translate(-100.11 -338.16)"/><path d="M292.84,385.82c0,5.72-3.5,9.43-8.84,9.42s-9-4-8.92-9.66,3.82-9.44,9-9.34S292.86,380.11,292.84,385.82Zm-12.41-.45a14,14,0,0,0,.33,2.49c.51,1.51,1.32,2.72,3.21,2.72a2.92,2.92,0,0,0,3.15-2.71,12.79,12.79,0,0,0-.45-5.26A3.38,3.38,0,0,0,284,381a4.08,4.08,0,0,0-2.76,1.64A7.27,7.27,0,0,0,280.43,385.37Z" transform="translate(-100.11 -338.16)"/><path d="M115.79,364.71H110.5c0-5.55,0-11,.06-16.41,0-.45.84-1.2,1.35-1.26a50.6,50.6,0,0,1,7.36-.59c4.11.07,6.45,2.11,6.74,6.19s.06,8,.06,12.06h-5.15c0-3.22,0-6.46,0-9.7,0-3.66-1.17-4.55-5.12-3.9Z" transform="translate(-100.11 -338.16)"/><path d="M299.1,364.75H294c0-3.3,0-6.54,0-9.78,0-3.65-1.21-4.56-5.13-3.85v13.54h-5.1a14.33,14.33,0,0,1-.17-1.56c0-4.65,0-9.3,0-14,0-1.47.46-2.15,1.9-2.23,2.31-.15,4.63-.51,6.93-.47,4.05.08,6.35,2,6.67,6S299.1,360.55,299.1,364.75Z" transform="translate(-100.11 -338.16)"/><path d="M382,394.71h-5.19c0-3.33,0-6.58,0-9.83,0-3.61-1.33-4.57-5.18-3.71v13.5h-5.23v-7.33c0-2.76.07-5.52,0-8.28,0-1.36.38-2.05,1.75-2.14,2.32-.16,4.63-.53,6.94-.49,4.38.07,6.74,2.35,6.92,6.72C382.11,386.92,382,390.7,382,394.71Z" transform="translate(-100.11 -338.16)"/><path d="M201,346.89h5.11c0,3.27,0,6.52,0,9.77.06,3.57,1.6,4.64,5.23,3.57V346.9h5.15v14c0,3.72,0,3.74-3.85,4A32.32,32.32,0,0,1,207,365c-3.68-.44-5.64-2.2-5.93-5.85C200.74,355.15,201,351.08,201,346.89Z" transform="translate(-100.11 -338.16)"/><path d="M225.43,376.91c.07,0,.13-.09.19-.1,4.71-.43,4.69-.42,6.06,4a38.12,38.12,0,0,0,2.67,6.87,76.66,76.66,0,0,0,2.52-8.11c.49-2.49,1.71-3.24,4-2.89.63.1,1.28.09,2.31.15-1.06,3.1-2,6-3.06,8.9-1,2.71-2.21,5.36-3.41,8-.62,1.36-4.57,1.62-5.14.29-2.36-5.58-4.58-11.21-6.86-16.82Z" transform="translate(-100.11 -338.16)"/><path d="M130.07,342.24l5.16-.73v5.17h6V351h-5.88c0,2.62-.08,4.93,0,7.23.09,1.76,1.28,2.55,3,2.49a29.59,29.59,0,0,0,3-.41l.71,3.83c-2.82,1.35-5.69,1.64-8.31.38a6.31,6.31,0,0,1-3.13-3.77,44.85,44.85,0,0,1-.51-8.46C130,349,130.07,345.74,130.07,342.24Z" transform="translate(-100.11 -338.16)"/><path d="M249.25,346.7V351h-6c0,2.55-.06,4.8,0,7,.07,1.86,1.23,2.72,3,2.65.94,0,1.87-.26,3-.42l.68,3.86c-2.85,1.31-5.72,1.63-8.33.34a6.3,6.3,0,0,1-3.1-3.8,50.57,50.57,0,0,1-.5-8.9c-.06-3.12,0-6.24,0-9.53l5.19-.75v5.19Z" transform="translate(-100.11 -338.16)"/><path d="M314.33,351.1c0,2.32,0,4.14,0,6,0,3.13,1.07,4,4.2,3.55l1.69-.25c1.31,4.27,1.36,4.46-3.33,4.84-5.17.42-7.63-1.91-7.74-7.08s0-10.45,0-15.81l5.12-.79v5.25h6v4.33Z" transform="translate(-100.11 -338.16)"/><path d="M386.4,372.24l5.08-.77v5.17h6.09V381h-5.91c0,2.6-.11,5,0,7.33.1,1.77,1.38,2.46,3.05,2.37.93-.05,1.85-.25,2.76-.39,1.25,4.21.88,4.73-3.35,4.89-5.19.19-7.62-2-7.73-7.15S386.4,377.59,386.4,372.24Z" transform="translate(-100.11 -338.16)"/><path d="M234.58,347.4l-1.08,3.91c-2.69-.45-5.4-1.36-7.16,1.55a6.88,6.88,0,0,0,.28,6.45c1.16,1.54,3.34,1.79,7.42.78l.84,3.9c-3.36,2.16-9.46,1.52-12.2-1.23-2.89-2.89-3.23-9.18-.69-12.81S229.51,345.26,234.58,347.4Z" transform="translate(-100.11 -338.16)"/><path d="M265,369.06l5.19-.92v3.52c0,5.09,0,10.18,0,15.27,0,1.92.42,3.48,2.79,3.95-.22,1.41-.43,2.73-.62,4-5.23.25-7.17-1.25-7.3-6.13C264.85,382.3,265,375.83,265,369.06Z" transform="translate(-100.11 -338.16)"/><path d="M105.23,364.76h-5.12V341.17h5.12Z" transform="translate(-100.11 -338.16)"/><path d="M150.54,364.71h-5.07c0-5.46,0-10.82,0-16.17a1.49,1.49,0,0,1,.79-1.09,19.18,19.18,0,0,1,10.93-.46l-.71,4.22-3.71-.36c-1.53-.16-2.24.36-2.18,2.06.12,3.2,0,6.4,0,9.6C150.65,363.21,150.58,363.92,150.54,364.71Z" transform="translate(-100.11 -338.16)"/><path d="M258,364.74h-4.87V346.9H258Z" transform="translate(-100.11 -338.16)"/><path d="M255.6,338.61a2.72,2.72,0,0,1,3,2.94,2.88,2.88,0,0,1-2.89,3.14,3.13,3.13,0,0,1-3.22-3.14A2.91,2.91,0,0,1,255.6,338.61Z" transform="translate(-100.11 -338.16)"/></g></svg>