<svg id="Layer_1" data-name="Layer 1" xmlns="http://www.w3.org/2000/svg" viewBox="0 0 477.25 138.3"><defs><style>.cls-1{fill:none;stroke:#000;stroke-miterlimit:10;}</style></defs><g id="P4sFZN.tif"><path class="cls-1" d="M128.67,221.79c-4.54-3.44-9.35-1.86-13.87-.32-8,2.74-15.85,6.18-22.76,11.28-1.32,1-3.31,1.86-2.93,4.11s2,3,3.77,3.95c7.27,3.62,14.91,6.67,20.73,12.68,4.59,4.73,7,10.13,4.13,16.57-1.7,3.86-5.25,6.23-8.76,8.4-9.15,5.66-19.48,8.4-29.72,11-11.92,3-24,5.31-36.15,7.43-11,1.94-22.18,3.48-33.44,1.76" transform="translate(-9.59 -161.59)"/><path class="cls-1" d="M252.15,258.71c-1.45-1.16-2.93-.47-4.42,0-5.87,1.65-11.71,3.41-17.62,4.89-1.54.39-3.56,1.46-4.83-.87-1-1.79-.06-2.92.71-4.58,3.3-7.06,6.81-14.07,8.38-21.8.26-1.2,1-2.83-.46-3.83-1.31-.88-2.61-.13-3.84.47-6,3-11,7.34-15.92,11.83-7.12,6.55-14.47,12.82-23.05,17.45A45.7,45.7,0,0,1,166.54,268a27.26,27.26,0,0,1-10.09-2.76c-3.34-1.58-4.12-5-4.89-8.28" transform="translate(-9.59 -161.59)"/><path class="cls-1" d="M174.66,168a5.3,5.3,0,0,0,2.74,2.77c6.61,2.81,7.91,8.75,2.84,15.43-7,9.2-16.52,15-26.81,19.36a134.78,134.78,0,0,1-37.57,9.65c-9.2,1-18.13.72-26.67-3.06-6.21-2.76-9.09-7-4-14.27,6.21-8.89,15.23-14.3,24-20.1,7-4.65,15-7.61,22.51-11.22,3.87-1.84,9.07-3.42,12.87-2.35,9.51,2.69,19.39.58,28.73,3.36.34.1.66.22,1,.33" transform="translate(-9.59 -161.59)"/><path class="cls-1" d="M361.44,264.13c-1.18-.68-2.41-.3-3.63-.15-6.08.83-12.14,1.83-18.25,2.42-1.43.14-3.49.47-4.63-1.47s.19-2.74,1-4.12c2.57-4.38,6.13-7.84,9.58-11.43a11.77,11.77,0,0,0,2.11-2.57c.49-.9,1-1.54.38-2.46a2.07,2.07,0,0,0-2.31-.83c-3.18.46-6.33.87-9.3,2.31-9,4.36-17.78,9.32-27.06,13.16a174.46,174.46,0,0,1-17.63,6,6.59,6.59,0,0,1-6.44-1.55c-1.7-1.55-.65-3.61-.41-5.58.49-3.92,3-6.64,4.95-9.74" transform="translate(-9.59 -161.59)"/><path class="cls-1" d="M246.77,173.06c-4.56-1.23-9.27-1-13.89-1.46-18.13-1.95-36.26-3.71-54.45-5a6.94,6.94,0,0,0-4,.9" transform="translate(-9.59 -161.59)"/><path class="cls-1" d="M477.64,245.39c-12.49-.09-23.49,4.21-33.19,11.8-2.53,2-4.53,4.6-4.54,8.37,0,4.46,2.74,6.47,6.18,8,7.56,3.36,15,1.29,22.4-.7a23.24,23.24,0,0,0,15.29-12c2.3-4.38,3.73-8.79,1.31-13.54-.53-1-1.41-2.35-2.38-2.6-3.84-1-7.08-3.87-11.29-3.65" transform="translate(-9.59 -161.59)"/><path class="cls-1" d="M409.28,249.73c4.41-1.89,7-5.93,10.48-8.92a102.56,102.56,0,0,0,21.32-25.46c1.79-3,4.49-5.81,3.6-10-2,0-3.3,1.07-4.56,2.26-11.57,11-21.1,23.6-29.85,36.86-1.59,2.42-.67,5.87-3.61,7.72-.51.32-1.07,1.06-1.71,1.55a83.77,83.77,0,0,1-35.62,15.32,9.72,9.72,0,0,1-4.76-.16c-3.52-1.16-4-3.25-1.59-6.11,3.26-3.8,7.44-6.28,11.84-8.38a71.12,71.12,0,0,1,9.74-3.62c1.6-.49,3.42-.89,5.06.34.16,3.22-2.73,4.62-4.59,6.35-4.09,3.81-9.4,4.77-14.87,4.88-2,0-3.94,1.23-5.84-.18" transform="translate(-9.59 -161.59)"/><path class="cls-1" d="M285.87,253.07c-1.9.05-3.06,1.37-4.22,2.6-5.86,6.2-12.65,11-20.93,13.36a6.41,6.41,0,0,1-3.75.25c-2.64-.84-5.53-1.64-6-4.75-.45-2.81.85-5.26,2.82-7.49,5.65-6.4,13.44-8.65,21-11.65,3.2-1.27,6.49.21,9.44-1.41" transform="translate(-9.59 -161.59)"/><path class="cls-1" d="M152.65,256c.78-6.14,4.43-10.43,9-14.26,5.77-4.86,11.95-9,19.13-11.43.47-.15.95-.68,1.33-.6,2.17.5,4.92-.6,6.43,1.52s-.08,4.08-1.23,6.17c-2.81,5.08-7.34,8.16-12.07,10.87a73,73,0,0,1-24,8.62c-2.44.42-5.05-.14-7.58-.36-1-.09-1.22-1-1.19-1.86" transform="translate(-9.59 -161.59)"/><path class="cls-1" d="M478.54,243.86c.67,5.74-3.54,8.45-7.48,10.6a70.06,70.06,0,0,1-28.29,8.42,6.89,6.89,0,0,1-1.76-.3" transform="translate(-9.59 -161.59)"/><path class="cls-1" d="M439.46,263.88c-2.75-1.06-5.59-.18-8.38-.25A50.43,50.43,0,0,1,411,258.78c-2.32-1.07-3.48-3.3-4.8-5.34" transform="translate(-9.59 -161.59)"/><path class="cls-1" d="M280.45,245.28c-.38,2.42-2.77,2.59-4.28,3.65-5.7,4-12.25,6.12-18.93,7.83-.48.12-1.09-.34-1.64-.53" transform="translate(-9.59 -161.59)"/><path class="cls-1" d="M164,165.77c0-2,.25-3.55-3-3.43-2.46.09-5.06-.22-7.61-.25s-4.5.39-5,3.48c-.2,1.32-1.59,1.82-2.89,2.38-2.25,1-4.75,1.63-6.49,3.59" transform="translate(-9.59 -161.59)"/></g></svg>